# xmcd
#
# Track frame offsets:
#	150
#	18700
#	39362
#	56368
#	71685
#	84207
#	102682
#	117860
#	138301
#
# Disc length: 2031 seconds
#
# Revision: 0
# Processed by: cddbd v1.5.2PL0 Copyright (c) Steve Scherf et al.
# Submitted via: EasyCDDAExtractor 10.0.6.1
#
DISCID=7407ed09
DTITLE=김태한 - The Convincer (Km Culture-2007)
DYEAR=2007
DGENRE=Ballad
TTITLE0=지워버려
TTITLE1=Close
TTITLE2=Wired
TTITLE3=할 수 있다고
TTITLE4=유령들
TTITLE5=날아가고 싶어
TTITLE6=이제 그만
TTITLE7=Happiness
TTITLE8=Delete
EXTD=
EXTT0=
EXTT1=
EXTT2=
EXTT3=
EXTT4=
EXTT5=
EXTT6=
EXTT7=
EXTT8=
PLAYORDER=
